<svg xmlns="http://www.w3.org/2000/svg" width="100" height="100" viewBox="0 0 100 100" preserveAspectRatio="xMidYMid meet" style="width: 100%; height: 100%;"><defs><clipPath id="animationMask_6hIexRbd6V"><rect width="100" height="100" x="0" y="0"></rect></clipPath><filter id="tuO87TlFgh" filterUnits="objectBoundingBox" x="0%" y="0%" width="100%" height="100%"><feColorMatrix type="matrix" color-interpolation-filters="sRGB" values="1 0 0 0 0 0 1 0 0 0 0 0 1 0 0 0 0 0 -1 1"></feColorMatrix></filter><mask id="ly_HE59MmfuVc" mask-type="alpha"><g filter="url(#tuO87TlFgh)"><rect width="100" height="100" x="0" y="0" fill="#ffffff" opacity="0"></rect><g transform="matrix(0.6,0,0,0.6,14.149999999999999,26.150000000000002)" opacity="1" style="-webkit-user-select: none;"><g opacity="1" transform="matrix(1,0,0,1,58.4,80.142)"><path fill="rgb(0,0,0)" fill-opacity="1" d="M0 0 M14.599,-10.427M0 0 M14.599,-10.427 C14.599,-9.299 14.185,-8.319 13.361,-7.495 C12.537,-6.671 11.556,-6.257 10.427,-6.257 C10.427,-6.257 -10.428,-6.257 -10.428,-6.257 C-11.561,-6.257 -12.538,-6.671 -13.362,-7.495 C-14.19,-8.319 -14.6,-9.299 -14.6,-10.427 C-14.6,-10.427 -14.6,-20.858 -14.6,-20.858 C-14.6,-20.858 -58.4,-20.858 -58.4,-20.858 C-58.4,-20.858 -58.4,10.431 -58.4,10.431 C-58.4,13.297999999999998 -57.381,15.752000000000002 -55.339,17.795 C-53.296,19.838 -50.839,20.858 -47.971,20.858 C-47.971,20.858 47.971,20.858 47.971,20.858 C50.837999999999994,20.858 53.294000000000004,19.838 55.337,17.795 C57.38,15.752000000000002 58.4,13.297999999999998 58.4,10.431 C58.4,10.431 58.4,-20.858 58.4,-20.858 C58.4,-20.858 14.599,-20.858 14.599,-20.858 C14.599,-20.858 14.599,-10.427 14.599,-10.427z"></path></g><g opacity="1" transform="matrix(1,0,0,1,58.401,63.457)"><path fill="rgb(0,0,0)" fill-opacity="1" d="M0 0 M-8.342,-4.172 C-8.342,-4.172 8.342,-4.172 8.342,-4.172 C8.342,-4.172 8.342,4.172 8.342,4.172 C8.342,4.172 -8.342,4.172 -8.342,4.172 C-8.342,4.172 -8.342,-4.172 -8.342,-4.172z"></path></g><g opacity="1" transform="matrix(1,0,0,1,66.256,96.334)"><path fill="rgb(0,0,0)" fill-opacity="1" d="M0 0 M73.311,-16.445 C73.311,-16.445 73.311,16.445 73.311,16.445 C73.311,16.445 -73.311,16.445 -73.311,16.445 C-73.311,16.445 -73.311,-16.445 -73.311,-16.445 C-73.311,-16.445 73.311,-16.445 73.311,-16.445z"></path></g></g></g></mask><filter id="RpW08gReWd" filterUnits="objectBoundingBox" x="0%" y="0%" width="100%" height="100%"><feColorMatrix type="matrix" color-interpolation-filters="sRGB" values="1 0 0 0 0 0 1 0 0 0 0 0 1 0 0 0 0 0 -1 1"></feColorMatrix></filter><mask id="ly_ADef88dcHX" mask-type="alpha"><g filter="url(#RpW08gReWd)"><rect width="100" height="100" x="0" y="0" fill="#ffffff" opacity="0"></rect><g transform="matrix(0.6,0,0,0.6,14.149999999999999,26.150000000000002)" opacity="1" style="-webkit-user-select: none;"><g opacity="1" transform="matrix(1,0,0,1,58.4,80.142)"><path fill="rgb(0,0,0)" fill-opacity="1" d="M0 0 M14.599,-10.427M0 0 M14.599,-10.427 C14.599,-9.299 14.185,-8.319 13.361,-7.495 C12.537,-6.671 11.556,-6.257 10.427,-6.257 C10.427,-6.257 -10.428,-6.257 -10.428,-6.257 C-11.561,-6.257 -12.538,-6.671 -13.362,-7.495 C-14.19,-8.319 -14.6,-9.299 -14.6,-10.427 C-14.6,-10.427 -14.6,-20.858 -14.6,-20.858 C-14.6,-20.858 -58.4,-20.858 -58.4,-20.858 C-58.4,-20.858 -58.4,10.431 -58.4,10.431 C-58.4,13.297999999999998 -57.381,15.752000000000002 -55.339,17.795 C-53.296,19.838 -50.839,20.858 -47.971,20.858 C-47.971,20.858 47.971,20.858 47.971,20.858 C50.837999999999994,20.858 53.294000000000004,19.838 55.337,17.795 C57.38,15.752000000000002 58.4,13.297999999999998 58.4,10.431 C58.4,10.431 58.4,-20.858 58.4,-20.858 C58.4,-20.858 14.599,-20.858 14.599,-20.858 C14.599,-20.858 14.599,-10.427 14.599,-10.427z"></path></g><g opacity="1" transform="matrix(1,0,0,1,58.401,63.457)"><path fill="rgb(0,0,0)" fill-opacity="1" d="M0 0 M-8.342,-4.172 C-8.342,-4.172 8.342,-4.172 8.342,-4.172 C8.342,-4.172 8.342,4.172 8.342,4.172 C8.342,4.172 -8.342,4.172 -8.342,4.172 C-8.342,4.172 -8.342,-4.172 -8.342,-4.172z"></path></g><g opacity="1" transform="matrix(1,0,0,1,66.256,96.334)"><path fill="rgb(0,0,0)" fill-opacity="1" d="M0 0 M73.311,-16.445 C73.311,-16.445 73.311,16.445 73.311,16.445 C73.311,16.445 -73.311,16.445 -73.311,16.445 C-73.311,16.445 -73.311,-16.445 -73.311,-16.445 C-73.311,-16.445 73.311,-16.445 73.311,-16.445z"></path></g></g></g></mask></defs><g clip-path="url(#animationMask_6hIexRbd6V)"><g transform="matrix(0.6,0,0,0.6,14.149999999999999,26.150000000000002)" opacity="1" style="-webkit-user-select: none;"><g opacity="1" transform="matrix(1,0,0,1,58.4,26.956)"><path fill="rgb(0,0,0)" fill-opacity="1" d="M0 0 M17.086,-19.469999999999995M0 0 M17.086,-19.469999999999995 C17.086,-19.469999999999995 -16.284999999999997,-19.469999999999995 -16.284999999999997,-19.469999999999995 C-16.284999999999997,-19.469999999999995 -16.284999999999997,-27.813999999999997 -16.284999999999997,-27.813999999999997 C-16.284999999999997,-27.813999999999997 17.086,-27.813999999999997 17.086,-27.813999999999997 C17.086,-27.813999999999997 17.086,-19.469999999999995 17.086,-19.469999999999995zM0 0 M55.738,-16.407999999999998 C53.69499999999999,-18.450999999999997 51.238,-19.469999999999995 48.370999999999995,-19.469999999999995 C48.370999999999995,-19.469999999999995 25.430000000000007,-19.469999999999995 25.430000000000007,-19.469999999999995 C25.430000000000007,-19.469999999999995 25.430000000000007,-29.9 25.430000000000007,-29.9 C25.430000000000007,-31.637999999999998 24.820000000000007,-33.114999999999995 23.602000000000004,-34.333 C22.387,-35.547999999999995 20.909999999999997,-36.157999999999994 19.171999999999997,-36.157999999999994 C19.171999999999997,-36.157999999999994 -18.371000000000002,-36.157999999999994 -18.371000000000002,-36.157999999999994 C-20.109,-36.157999999999994 -21.586,-35.547999999999995 -22.805,-34.333 C-24.020000000000003,-33.119 -24.628999999999998,-31.637999999999998 -24.628999999999998,-29.9 C-24.628999999999998,-29.9 -24.628999999999998,-19.469999999999995 -24.628999999999998,-19.469999999999995 C-24.628999999999998,-19.469999999999995 -47.57,-19.469999999999995 -47.57,-19.469999999999995 C-50.438,-19.469999999999995 -52.894999999999996,-18.450999999999997 -54.938,-16.407999999999998 C-56.98,-14.364999999999998 -58,-11.911999999999995 -58,-9.043999999999997 C-58,-9.043999999999997 -58,15.983000000000004 -58,15.983000000000004 C-58,15.983000000000004 58.801,15.983000000000004 58.801,15.983000000000004 C58.801,15.983000000000004 58.801,-9.043999999999997 58.801,-9.043999999999997 C58.801,-11.911999999999995 57.781000000000006,-14.364999999999998 55.738,-16.407999999999998z"></path><g opacity="1" transform="matrix(1,0,0,1,-58,-37.044)"></g></g></g><g mask="url(#ly_HE59MmfuVc)"><g transform="matrix(0.9276156132841443,-0.2836005535810547,0.2836005535810547,0.9276156132841443,6.349623179870932,25.855113107271638)" opacity="1" style="-webkit-user-select: none;"><path stroke-linecap="butt" stroke-linejoin="miter" fill-opacity="0" stroke-miterlimit="4" stroke="rgb(178,5,5)" stroke-opacity="1" stroke-width="4" d="M0 0 M36.02,6.508 C36.02,6.508 40.777,11.68 40.777,11.68 C40.777,11.68 36.02,11.68 36.02,11.68 C36.02,11.68 36.02,6.508 36.02,6.508zM0 0 M42.77,59.183 C42.77,59.522 42.495999999999995,59.796 42.16,59.796 C42.16,59.796 3.812000000000001,59.796 3.812000000000001,59.796 C3.4770000000000003,59.796 3.203000000000003,59.522 3.203000000000003,59.183 C3.203000000000003,59.183 3.203000000000003,4.611999999999998 3.203000000000003,4.611999999999998 C3.203000000000003,4.276 3.4770000000000003,4.003999999999998 3.812000000000001,4.003999999999998 C3.812000000000001,4.003999999999998 32.812,4.003999999999998 32.812,4.003999999999998 C32.812,4.003999999999998 32.812,13.279999999999998 32.812,13.279999999999998 C32.812,14.162999999999997 33.535,14.878999999999998 34.418,14.878999999999998 C34.418,14.878999999999998 42.77,14.878999999999998 42.77,14.878999999999998 C42.77,14.878999999999998 42.77,59.183 42.77,59.183zM0 0 M9.329,47.307 C9.329,47.307 33.277,47.284 33.277,47.284M0 0 M10.556,35.604 C10.556,35.604 32.584,35.097 32.584,35.097M0 0 M10.552,24.898 C10.552,24.898 34.501,24.874 34.501,24.874"></path><g opacity="1" transform="matrix(1,0,0,1,22.92,31.9)"><path stroke-linecap="butt" stroke-linejoin="miter" fill-opacity="0" stroke-miterlimit="4" stroke="rgb(178,5,5)" stroke-opacity="1" stroke-width="5" d="M0 0 M19.85,27.283 C19.85,27.622 19.575999999999997,27.896 19.24,27.896 C19.24,27.896 -19.108,27.896 -19.108,27.896 C-19.443,27.896 -19.717,27.622 -19.717,27.283 C-19.717,27.283 -19.717,-27.288 -19.717,-27.288 C-19.717,-27.624 -19.443,-27.896 -19.108,-27.896 C-19.108,-27.896 9.892,-27.896 9.892,-27.896 C9.892,-27.896 9.892,-18.62 9.892,-18.62 C9.892,-17.737000000000002 10.614999999999998,-17.021 11.498,-17.021 C11.498,-17.021 19.85,-17.021 19.85,-17.021 C19.85,-17.021 19.85,27.283 19.85,27.283z"></path><path fill="rgb(255,251,251)" fill-opacity="1" d="M0 0 M19.85,27.283 C19.85,27.622 19.575999999999997,27.896 19.24,27.896 C19.24,27.896 -19.108,27.896 -19.108,27.896 C-19.443,27.896 -19.717,27.622 -19.717,27.283 C-19.717,27.283 -19.717,-27.288 -19.717,-27.288 C-19.717,-27.624 -19.443,-27.896 -19.108,-27.896 C-19.108,-27.896 9.892,-27.896 9.892,-27.896 C9.892,-27.896 9.892,-18.62 9.892,-18.62 C9.892,-17.737000000000002 10.614999999999998,-17.021 11.498,-17.021 C11.498,-17.021 19.85,-17.021 19.85,-17.021 C19.85,-17.021 19.85,27.283 19.85,27.283z"></path></g><g opacity="1" transform="matrix(1,0,0,1,2,0)"><path fill="rgb(255,251,251)" fill-opacity="1" d="M0 0 M7.329,47.307 C7.329,47.307 31.277,47.284 31.277,47.284M0 0 M8.556,35.604 C8.556,35.604 30.584,35.097 30.584,35.097M0 0 M8.552,24.898 C8.552,24.898 32.501,24.874 32.501,24.874"></path><path stroke-linecap="butt" stroke-linejoin="miter" fill-opacity="0" stroke-miterlimit="4" stroke="rgb(177,4,4)" stroke-opacity="1" stroke-width="2" d="M0 0 M7.329,47.307 C7.329,47.307 31.277,47.284 31.277,47.284M0 0 M8.556,35.604 C8.556,35.604 30.584,35.097 30.584,35.097M0 0 M8.552,24.898 C8.552,24.898 32.501,24.874 32.501,24.874"></path></g></g></g><g mask="url(#ly_ADef88dcHX)"><g transform="matrix(0.44409081564795844,0.2070829482529427,-0.2070829482529427,0.44409081564795844,58.17256558419112,35.04218608944765)" opacity="1" style="-webkit-user-select: none;"><path stroke-linecap="butt" stroke-linejoin="miter" fill-opacity="0" stroke-miterlimit="4" stroke="rgb(178,5,5)" stroke-opacity="1" stroke-width="4" d="M0 0 M36.02,6.508 C36.02,6.508 40.777,11.68 40.777,11.68 C40.777,11.68 36.02,11.68 36.02,11.68 C36.02,11.68 36.02,6.508 36.02,6.508zM0 0 M42.77,59.183 C42.77,59.522 42.495999999999995,59.796 42.16,59.796 C42.16,59.796 3.812000000000001,59.796 3.812000000000001,59.796 C3.4770000000000003,59.796 3.203000000000003,59.522 3.203000000000003,59.183 C3.203000000000003,59.183 3.203000000000003,4.611999999999998 3.203000000000003,4.611999999999998 C3.203000000000003,4.276 3.4770000000000003,4.003999999999998 3.812000000000001,4.003999999999998 C3.812000000000001,4.003999999999998 32.812,4.003999999999998 32.812,4.003999999999998 C32.812,4.003999999999998 32.812,13.279999999999998 32.812,13.279999999999998 C32.812,14.162999999999997 33.535,14.878999999999998 34.418,14.878999999999998 C34.418,14.878999999999998 42.77,14.878999999999998 42.77,14.878999999999998 C42.77,14.878999999999998 42.77,59.183 42.77,59.183zM0 0 M9.329,47.307 C9.329,47.307 33.277,47.284 33.277,47.284M0 0 M10.556,35.604 C10.556,35.604 32.584,35.097 32.584,35.097M0 0 M10.552,24.898 C10.552,24.898 34.501,24.874 34.501,24.874"></path><g opacity="1" transform="matrix(1,0,0,1,22.92,31.9)"><path stroke-linecap="butt" stroke-linejoin="miter" fill-opacity="0" stroke-miterlimit="4" stroke="rgb(178,5,5)" stroke-opacity="1" stroke-width="5" d="M0 0 M19.85,27.283 C19.85,27.622 19.575999999999997,27.896 19.24,27.896 C19.24,27.896 -19.108,27.896 -19.108,27.896 C-19.443,27.896 -19.717,27.622 -19.717,27.283 C-19.717,27.283 -19.717,-27.288 -19.717,-27.288 C-19.717,-27.624 -19.443,-27.896 -19.108,-27.896 C-19.108,-27.896 9.892,-27.896 9.892,-27.896 C9.892,-27.896 9.892,-18.62 9.892,-18.62 C9.892,-17.737000000000002 10.614999999999998,-17.021 11.498,-17.021 C11.498,-17.021 19.85,-17.021 19.85,-17.021 C19.85,-17.021 19.85,27.283 19.85,27.283z"></path><path fill="rgb(255,251,251)" fill-opacity="1" d="M0 0 M19.85,27.283 C19.85,27.622 19.575999999999997,27.896 19.24,27.896 C19.24,27.896 -19.108,27.896 -19.108,27.896 C-19.443,27.896 -19.717,27.622 -19.717,27.283 C-19.717,27.283 -19.717,-27.288 -19.717,-27.288 C-19.717,-27.624 -19.443,-27.896 -19.108,-27.896 C-19.108,-27.896 9.892,-27.896 9.892,-27.896 C9.892,-27.896 9.892,-18.62 9.892,-18.62 C9.892,-17.737000000000002 10.614999999999998,-17.021 11.498,-17.021 C11.498,-17.021 19.85,-17.021 19.85,-17.021 C19.85,-17.021 19.85,27.283 19.85,27.283z"></path></g><g opacity="1" transform="matrix(1,0,0,1,2,0)"><path fill="rgb(255,251,251)" fill-opacity="1" d="M0 0 M7.329,47.307 C7.329,47.307 31.277,47.284 31.277,47.284M0 0 M8.556,35.604 C8.556,35.604 30.584,35.097 30.584,35.097M0 0 M8.552,24.898 C8.552,24.898 32.501,24.874 32.501,24.874"></path><path stroke-linecap="butt" stroke-linejoin="miter" fill-opacity="0" stroke-miterlimit="4" stroke="rgb(177,4,4)" stroke-opacity="1" stroke-width="2" d="M0 0 M7.329,47.307 C7.329,47.307 31.277,47.284 31.277,47.284M0 0 M8.556,35.604 C8.556,35.604 30.584,35.097 30.584,35.097M0 0 M8.552,24.898 C8.552,24.898 32.501,24.874 32.501,24.874"></path></g></g></g><g transform="matrix(0.6,0,0,0.6,14.149999999999999,26.150000000000002)" opacity="1" style="-webkit-user-select: none;"><g opacity="1" transform="matrix(1,0,0,1,58.4,80.142)"><path fill="rgb(0,0,0)" fill-opacity="1" d="M0 0 M14.599,-10.427M0 0 M14.599,-10.427 C14.599,-9.299 14.185,-8.319 13.361,-7.495 C12.537,-6.671 11.556,-6.257 10.427,-6.257 C10.427,-6.257 -10.428,-6.257 -10.428,-6.257 C-11.561,-6.257 -12.538,-6.671 -13.362,-7.495 C-14.19,-8.319 -14.6,-9.299 -14.6,-10.427 C-14.6,-10.427 -14.6,-20.858 -14.6,-20.858 C-14.6,-20.858 -58.4,-20.858 -58.4,-20.858 C-58.4,-20.858 -58.4,10.431 -58.4,10.431 C-58.4,13.297999999999998 -57.381,15.752000000000002 -55.339,17.795 C-53.296,19.838 -50.839,20.858 -47.971,20.858 C-47.971,20.858 47.971,20.858 47.971,20.858 C50.837999999999994,20.858 53.294000000000004,19.838 55.337,17.795 C57.38,15.752000000000002 58.4,13.297999999999998 58.4,10.431 C58.4,10.431 58.4,-20.858 58.4,-20.858 C58.4,-20.858 14.599,-20.858 14.599,-20.858 C14.599,-20.858 14.599,-10.427 14.599,-10.427z"></path></g><g opacity="1" transform="matrix(1,0,0,1,58.401,63.457)"><path fill="rgb(0,0,0)" fill-opacity="1" d="M0 0 M-8.342,-4.172 C-8.342,-4.172 8.342,-4.172 8.342,-4.172 C8.342,-4.172 8.342,4.172 8.342,4.172 C8.342,4.172 -8.342,4.172 -8.342,4.172 C-8.342,4.172 -8.342,-4.172 -8.342,-4.172z"></path></g></g><g></g></g></svg>