<svg xmlns="http://www.w3.org/2000/svg" width="350" height="350" viewBox="0 0 350 350" preserveAspectRatio="xMidYMid meet" style="width: 100%; height: 100%;"><defs><clipPath id="animationMask_J95GTFRDmb"><rect width="350" height="350" x="0" y="0"></rect></clipPath></defs><g clip-path="url(#animationMask_J95GTFRDmb)"><g transform="matrix(1,0,0,1,64,19)" opacity="1" style="-webkit-user-select: none;"><g opacity="1" transform="matrix(1,0,0,1,135.96,155.616)"><path fill="rgb(0,0,0)" fill-opacity="1" d="M0 0 M-3.218,105.878 C-3.218,105.878 -34.98,105.878 -34.98,105.878 C-55.019,105.878 -71.323,122.18400000000001 -71.323,142.223 C-71.323,149.49300000000002 -65.433,155.383 -58.167,155.383 C-58.167,155.383 80.005,155.383 80.005,155.383 C87.27,155.383 93.161,149.49300000000002 93.161,142.223 C93.161,122.18400000000001 76.86,105.878 56.817,105.878 C56.817,105.878 36.431,105.878 36.431,105.878 C36.431,105.878 -3.218,105.878 -3.218,105.878z"></path></g></g><g transform="matrix(0.992546151641322,-0.12186934340514748,0.12186934340514748,0.992546151641322,187.21601886951058,185.98375610731253)" opacity="1" style="-webkit-user-select: none;"><g opacity="1" transform="matrix(0.8090169943749475,0.5877852522924731,-0.5877852522924731,0.8090169943749475,46.103355807331575,64.31077353085047)"><path fill="rgb(0,0,0)" fill-opacity="1" d="M0 0 M13.752,-60.199 C13.752,-60.199 13.752,60.199 13.752,60.199 C13.752,60.199 -13.752,60.199 -13.752,60.199 C-13.752,60.199 -13.752,-60.199 -13.752,-60.199 C-13.752,-60.199 13.752,-60.199 13.752,-60.199z"></path></g></g><g transform="matrix(0.992546151641322,-0.12186934340514748,0.12186934340514748,0.992546151641322,187.21601886951058,185.98375610731253)" opacity="1" style="-webkit-user-select: none;"><g opacity="1" transform="matrix(0.7071067811865476,-0.7071067811865475,0.7071067811865475,0.7071067811865476,31.50186816533862,-75.54531228331513)"><path fill="rgb(0,0,0)" fill-opacity="1" d="M0 0 M13.752,-60.199 C13.752,-60.199 13.752,60.199 13.752,60.199 C13.752,60.199 -13.752,60.199 -13.752,60.199 C-13.752,60.199 -13.752,-60.199 -13.752,-60.199 C-13.752,-60.199 13.752,-60.199 13.752,-60.199z"></path></g></g><g transform="matrix(0.992546151641322,-0.12186934340514748,0.12186934340514748,0.992546151641322,187.21601886951058,185.98375610731253)" opacity="1" style="-webkit-user-select: none;"><g opacity="1" transform="matrix(1,0,0,1,94.533,-5.467)"><path stroke-linecap="butt" stroke-linejoin="miter" fill-opacity="0" stroke-miterlimit="4" stroke="rgb(0,0,0)" stroke-opacity="1" stroke-width="20" d="M0 0 M0,-30.033 C16.575212699999998,-30.033 30.033,-16.575212699999998 30.033,0 C30.033,16.575212699999998 16.575212699999998,30.033 0,30.033 C-16.575212699999998,30.033 -30.033,16.575212699999998 -30.033,0 C-30.033,-16.575212699999998 -16.575212699999998,-30.033 0,-30.033z"></path></g></g><g transform="matrix(0.992546151641322,-0.12186934340514748,0.12186934340514748,0.992546151641322,182.7583568893247,182.50104887436783)" opacity="1" style="-webkit-user-select: none;"><g opacity="1" transform="matrix(1,0,0,1,-71.605,-58.086)"><path stroke-linecap="butt" stroke-linejoin="miter" fill-opacity="0" stroke-miterlimit="4" stroke="rgb(0,0,0)" stroke-opacity="1" stroke-width="5" d="M0 0 M0,-35.5145 C20.608221949999997,-35.5145 37.3405,-19.600452549999996 37.3405,0 C37.3405,19.600452549999996 20.608221949999997,35.5145 0,35.5145 C-20.608221949999997,35.5145 -37.3405,19.600452549999996 -37.3405,0 C-37.3405,-19.600452549999996 -20.608221949999997,-35.5145 0,-35.5145z"></path></g></g><g transform="matrix(0.992546151641322,-0.12186934340514748,0.12186934340514748,0.992546151641322,33.21812467508778,47.72078715436635)" opacity="1" style="-webkit-user-select: none;"><g opacity="1" transform="matrix(1,0,0,1,135.96,155.616)"><path fill="rgb(0,0,0)" fill-opacity="1" d="M0 0 M15.27,-110.829 C20.012999999999998,-122.274 17.739,-135.941 8.435,-145.25 C8.435,-145.25 7.544,-146.14 7.544,-146.14 C-4.784,-158.464 -24.769000000000002,-158.464 -37.097,-146.14 C-37.097,-146.14 -49.784,-133.445 -49.784,-133.445 C-72.835,-140.296 -98.812,-134.625 -117.003,-116.429 C-117.003,-116.429 -135.96,-97.473 -135.96,-97.473 C-135.96,-97.473 -120.683,-82.191 -120.683,-82.191 C-120.683,-82.191 -55.511,-17.02 -55.511,-17.02 C-55.511,-17.02 -40.23,-1.743 -40.23,-1.743 C-40.23,-1.743 -21.269,-20.699 -21.269,-20.699 C-4.018999999999998,-37.949 1.9620000000000002,-62.192 -3.296,-84.301 C-3.296,-84.301 15.27,-110.829 15.27,-110.829z"></path></g></g><g></g></g></svg>