<svg xmlns="http://www.w3.org/2000/svg" width="100" height="100" viewBox="0 0 100 100" preserveAspectRatio="xMidYMid meet" style="width: 100%; height: 100%;"><defs><clipPath id="animationMask_tC9kmgG2IY"><rect width="100" height="100" x="0" y="0"></rect></clipPath></defs><g clip-path="url(#animationMask_tC9kmgG2IY)"><g transform="matrix(3.68,0,0,3.68,16.879719999999992,27.03976)" opacity="1" style="-webkit-user-select: none;"><g opacity="1" transform="matrix(1,0,0,1,8.746,11.440999999999999)"><path fill="rgb(0,0,0)" fill-opacity="1" d="M0 0 M0,2.912M0 0 M0,2.912 C-1.609,2.912 -2.914,1.6070000000000002 -2.914,-0.003 C-2.914,-1.6119999999999999 -1.609,-2.916 0,-2.916 C1.609,-2.916 2.914,-1.6119999999999999 2.914,-0.003 C2.914,1.6070000000000002 1.609,2.912 0,2.912zM0 0 M2.914,-4.736 C2.914,-4.736 2.914,-5.65 2.914,-5.65 C2.914,-6.15 2.508,-6.561 2.004,-6.561 C1.504,-6.561 1.094,-6.15 1.094,-5.65 C1.094,-5.65 1.094,-4.736 1.094,-4.736 C1.094,-4.736 -1.094,-4.736 -1.094,-4.736 C-1.094,-4.736 -1.094,-5.65 -1.094,-5.65 C-1.094,-6.15 -1.5,-6.561 -2.004,-6.561 C-2.508,-6.561 -2.914,-6.15 -2.914,-5.65 C-2.914,-5.65 -2.914,-4.736 -2.914,-4.736 C-2.914,-4.736 -7.832,0.514 -7.832,0.514 C-8.172,0.8460000000000001 -8.383,1.306 -8.383,1.818 C-8.383,1.818 -8.383,3.279 -8.383,3.279 C-8.383,4.083 -7.73,4.736 -6.926,4.736 C-6.926,4.736 -6.558,4.736 -6.558,4.736 C-6.558,4.736 -6.558,5.646 -6.558,5.646 C-6.558,6.15 -6.152,6.561 -5.652,6.561 C-5.144,6.561 -4.738,6.15 -4.738,5.646 C-4.738,5.646 -4.738,4.736 -4.738,4.736 C-4.738,4.736 4.734,4.736 4.734,4.736 C4.734,4.736 4.734,5.646 4.734,5.646 C4.734,6.15 5.149,6.561 5.649,6.561 C6.152,6.561 6.559,6.15 6.559,5.646 C6.559,5.646 6.559,4.736 6.559,4.736 C6.559,4.736 6.922,4.736 6.922,4.736 C7.731,4.736 8.383,4.083 8.383,3.279 C8.383,3.279 8.383,1.818 8.383,1.818 C8.383,1.306 8.168,0.8460000000000001 7.832,0.514 C7.832,0.514 2.914,-4.736 2.914,-4.736z"></path></g><g opacity="1" transform="matrix(1,0,0,1,0,0)"><path fill="rgb(0,0,0)" fill-opacity="1" d="M0 0 M-40.457,9.636"></path><path stroke-linecap="butt" stroke-linejoin="miter" fill-opacity="0" stroke-miterlimit="4" stroke="rgb(0,110,113)" stroke-opacity="1" stroke-width="3" d="M0 0 M-40.457,9.636"></path></g></g><g transform="matrix(3.68,0,0,3.68,16.879719999999992,27.03976)" opacity="1" style="-webkit-user-select: none;"><g opacity="1" transform="matrix(1,0,0,1,8.746,11.439)"><path fill="rgb(0,0,0)" fill-opacity="1" d="M0 0 M1.457,0M0 0 M1.457,0 C1.457,0.805 0.805,1.457 0,1.457 C-0.805,1.457 -1.457,0.805 -1.457,0 C-1.457,-0.804 -0.805,-1.457 0,-1.457 C0.805,-1.457 1.457,-0.804 1.457,0z"></path></g></g><g transform="matrix(3.68,0,0,3.68,16.879719999999992,27.03976)" opacity="1" style="-webkit-user-select: none;"><g opacity="1" transform="matrix(1,0,0,1,8.746,3.572)"><path fill="rgb(0,0,0)" fill-opacity="1" d="M0 0 M8.731,2.187M0 0 M8.731,2.187 C8.625,1.1549999999999998 8.313,-0.474 7.371,-1.395 C6.238,-2.5090000000000003 3.117,-3.063 0,-3.063 C-3.117,-3.063 -6.238,-2.505 -7.371,-1.395 C-8.312000000000001,-0.474 -8.625,1.1549999999999998 -8.73,2.187 C-8.73,2.187 -8.746,2.288 -8.746,2.331 C-8.746,2.737 -8.418,3.063 -8.016,3.063 C-7.969,3.063 -6.215,2.921 -5.16,2.831 C-5.1370000000000005,2.827 -5.109,2.823 -5.082,2.819 C-4.691,2.804 -4.371,2.483 -4.371,2.089 C-4.371,2.089 -4.371,0.651 -4.371,0.651 C-4.371,0.20600000000000002 -4.008,-0.148 -3.562,-0.148 C-3.562,-0.148 3.563,-0.148 3.563,-0.148 C4.008,-0.148 4.367,0.20600000000000002 4.367,0.651 C4.367,0.651 4.375,2.089 4.375,2.089 C4.375,2.483 4.692,2.804 5.082,2.819 C5.109,2.823 5.1370000000000005,2.827 5.16,2.831 C6.219,2.921 7.969,3.063 8.016,3.063 C8.418,3.063 8.746,2.737 8.746,2.331 C8.746,2.288 8.731,2.187 8.731,2.187z"></path></g></g></g></svg>